<svg id="Layer_1" data-name="Layer 1" xmlns="http://www.w3.org/2000/svg" xmlns:xlink="http://www.w3.org/1999/xlink" viewBox="0 0 466 170.42"><defs><style>.cls-1{fill:none;}.cls-2{fill:#006690;}.cls-3{fill:#fff;}.cls-4{fill:#231f20;}.cls-5{clip-path:url(#clip-path);}.cls-6{fill:#72bf44;}</style><clipPath id="clip-path" transform="translate(-29.21 -23.44)"><rect class="cls-1" width="525.55" height="211.42"/></clipPath></defs><title>Vikas Money Logo</title><rect class="cls-2" width="466" height="145.54"/><rect class="cls-3" x="4.5" y="3.77" width="138" height="138"/><polygon class="cls-4" points="6.79 165.31 6.79 170.3 5.39 170.3 5.39 165.31 0 155.86 1.52 155.86 6.14 163.97 10.76 155.86 12.18 155.86 6.79 165.31"/><g class="cls-5"><path class="cls-4" d="M45.68,186.52a7.08,7.08,0,1,1,7.08,7.35,7,7,0,0,1-7.08-7.35m12.72,0a5.67,5.67,0,1,0-5.64,6,5.66,5.66,0,0,0,5.64-6" transform="translate(-29.21 -23.44)"/><path class="cls-4" d="M66.76,187.57v-8.27h1.42v8.21c0,3.42,1.5,5,4.12,5s4.14-1.57,4.14-5v-8.21h1.39v8.27c0,4.15-2.08,6.29-5.52,6.29s-5.54-2.15-5.54-6.29" transform="translate(-29.21 -23.44)"/><path class="cls-4" d="M95.17,193.74l-3.08-4.64a9,9,0,0,1-1.08.06H87.39v4.58H86V179.29h5c3.42,0,5.5,1.86,5.5,5a4.45,4.45,0,0,1-3.08,4.54l3.29,5Zm-.08-9.49c0-2.31-1.42-3.63-4.12-3.63H87.39v7.24H91c2.69,0,4.12-1.34,4.12-3.61" transform="translate(-29.21 -23.44)"/><path class="cls-4" d="M112.51,187.57v-8.27h1.42v8.21c0,3.42,1.5,5,4.12,5s4.14-1.57,4.14-5v-8.21h1.39v8.27c0,4.15-2.08,6.29-5.52,6.29s-5.54-2.15-5.54-6.29" transform="translate(-29.21 -23.44)"/><polygon class="cls-4" points="102.52 155.86 103.94 155.86 103.94 168.98 111.48 168.98 111.48 170.3 102.52 170.3 102.52 155.86"/><polygon class="cls-4" points="119.07 157.18 114.34 157.18 114.34 155.86 125.23 155.86 125.23 157.18 120.49 157.18 120.49 170.3 119.07 170.3 119.07 157.18"/><rect class="cls-4" x="131.35" y="155.86" width="1.42" height="14.44"/><polygon class="cls-4" points="155 155.86 155 170.3 153.64 170.3 153.64 158.75 148.34 168.46 147.67 168.46 142.38 158.81 142.38 170.3 141.01 170.3 141.01 155.86 142.19 155.86 148.04 166.56 153.83 155.86 155 155.86"/><path class="cls-4" d="M200.9,189.88h-7.5l-1.62,3.86H190.3l6.16-14.44h1.4L204,193.74h-1.5Zm-.52-1.24-3.23-7.76-3.23,7.76Z" transform="translate(-29.21 -23.44)"/><polygon class="cls-4" points="182.84 157.18 178.11 157.18 178.11 155.86 189 155.86 189 157.18 184.26 157.18 184.26 170.3 182.84 170.3 182.84 157.18"/><polygon class="cls-4" points="204.65 168.98 204.65 170.3 195.12 170.3 195.12 155.86 204.36 155.86 204.36 157.18 196.54 157.18 196.54 162.31 203.51 162.31 203.51 163.62 196.54 163.62 196.54 168.98 204.65 168.98"/><polygon class="cls-4" points="234.73 155.86 234.73 170.3 233.36 170.3 233.36 158.75 228.07 168.46 227.4 168.46 222.11 158.81 222.11 170.3 220.74 170.3 220.74 155.86 221.91 155.86 227.76 166.56 233.56 155.86 234.73 155.86"/><path class="cls-4" d="M271,186.52a7.08,7.08,0,1,1,7.08,7.35,7,7,0,0,1-7.08-7.35m12.72,0a5.67,5.67,0,1,0-5.64,6,5.66,5.66,0,0,0,5.64-6" transform="translate(-29.21 -23.44)"/><polygon class="cls-4" points="274.23 155.86 274.23 170.3 273.05 170.3 264.4 158.58 264.4 170.3 262.97 170.3 262.97 155.86 264.15 155.86 272.82 167.57 272.82 155.86 274.23 155.86"/><polygon class="cls-4" points="291.99 168.98 291.99 170.3 282.47 170.3 282.47 155.86 291.7 155.86 291.7 157.18 283.89 157.18 283.89 162.31 290.86 162.31 290.86 163.62 283.89 163.62 283.89 168.98 291.99 168.98"/><polygon class="cls-4" points="301.81 157.18 297.08 157.18 297.08 155.86 307.97 155.86 307.97 157.18 303.24 157.18 303.24 170.3 301.81 170.3 301.81 157.18"/><path class="cls-4" d="M351.07,189.88h-7.5L342,193.74h-1.48l6.16-14.44H348l6.16,14.44h-1.5Zm-.52-1.24-3.23-7.76-3.23,7.76Z" transform="translate(-29.21 -23.44)"/><path class="cls-4" d="M369.47,193.74l-3.08-4.64a9,9,0,0,1-1.08.06H361.7v4.58h-1.42V179.29h5c3.42,0,5.5,1.86,5.5,5a4.45,4.45,0,0,1-3.08,4.54l3.29,5Zm-.08-9.49c0-2.31-1.42-3.63-4.12-3.63H361.7v7.24h3.58c2.69,0,4.12-1.34,4.12-3.61" transform="translate(-29.21 -23.44)"/><polygon class="cls-4" points="353.26 165.31 353.26 170.3 351.86 170.3 351.86 165.31 346.47 155.86 347.99 155.86 352.61 163.97 357.23 155.86 358.65 155.86 353.26 165.31"/><polygon class="cls-4" points="375.04 157.18 375.04 162.85 382 162.85 382 164.17 375.04 164.17 375.04 170.3 373.61 170.3 373.61 155.86 382.85 155.86 382.85 157.18 375.04 157.18"/><path class="cls-4" d="M428,193.74,425,189.09a9,9,0,0,1-1.08.06h-3.62v4.58h-1.42V179.29h5c3.42,0,5.5,1.86,5.5,5a4.45,4.45,0,0,1-3.08,4.54l3.29,5Zm-.08-9.49c0-2.31-1.42-3.63-4.12-3.63h-3.58v7.24h3.58c2.69,0,4.12-1.34,4.12-3.61" transform="translate(-29.21 -23.44)"/><rect class="cls-4" x="407.41" y="155.86" width="1.42" height="14.44"/><polygon class="cls-4" points="426.6 168.98 426.6 170.3 417.07 170.3 417.07 155.86 426.31 155.86 426.31 157.18 418.5 157.18 418.5 162.31 425.46 162.31 425.46 163.62 418.5 163.62 418.5 168.98 426.6 168.98"/><polygon class="cls-4" points="445.06 155.86 445.06 170.3 443.88 170.3 435.23 158.58 435.23 170.3 433.8 170.3 433.8 155.86 434.98 155.86 443.65 167.57 443.65 155.86 445.06 155.86"/><path class="cls-4" d="M482.51,179.29H488a7.22,7.22,0,0,1,0,14.44h-5.48Zm5.41,13.12a5.9,5.9,0,0,0,0-11.8h-4v11.8Z" transform="translate(-29.21 -23.44)"/><path class="cls-3" d="M292.87,117.84h-18v-.79h1a5.17,5.17,0,0,0,5.26-5V68.22a5.17,5.17,0,0,0-5.26-4.94h-1v-.79h18v.79h-1a5.17,5.17,0,0,0-5.26,4.92v43.88a5.17,5.17,0,0,0,5.26,5h1Z" transform="translate(-29.21 -23.44)"/><path class="cls-3" d="M462.93,94.52a12.24,12.24,0,0,1,4.13,9.64c0,8.75-5.94,14.79-15.39,14.79-4,0-10.68-1.11-13.91-4.32-.61-2.44-.3-7.48.95-11h.72c-.83,8.15,4.53,13.36,11.85,13,6-.32,11-4.28,11-10.6a9.48,9.48,0,0,0-3.22-7.37L443.33,84.55a13,13,0,0,1-4.45-9.8c0-6.66,5.07-13.36,14.44-13.36a37.16,37.16,0,0,1,7,.81h3.26v9.7h-.79c0-5.06-4.12-8.14-9.24-8.14-6.05,0-10.1,4.28-10.1,9.1a9.77,9.77,0,0,0,3.31,7.29Z" transform="translate(-29.21 -23.44)"/><path class="cls-3" d="M409.59,118.38v-.79h.72c2.12,0,4.3-1.77,3.1-4.93L397.12,74.89l-16.38,37.76c-1.2,3.16,1,4.93,3.1,4.93h.72v.79h-18.5v-.8h.66a8.11,8.11,0,0,0,7.25-5l23.1-50.68,23.11,50.68a8.11,8.11,0,0,0,7.25,5h.66v.8Z" transform="translate(-29.21 -23.44)"/><path class="cls-3" d="M241.6,61.95v.79h.72c2.12,0,4.3,1.77,3.1,4.93l-16.29,37.76L212.76,67.67c-1.2-3.16,1-4.93,3.1-4.93h.72v-.79h-18.5v.8h.66a8.11,8.11,0,0,1,7.25,5l23.11,50.68L252.2,67.7a8.11,8.11,0,0,1,7.25-5h.66v-.8Z" transform="translate(-29.21 -23.44)"/><path class="cls-3" d="M320.48,112.08a5.17,5.17,0,0,0,5.26,5h1v.79h-18v-.79h1a5.17,5.17,0,0,0,5.26-5V68.22a5.17,5.17,0,0,0-5.26-4.94h-1v-.79h18v.79h-1a5.17,5.17,0,0,0-5.26,4.92Z" transform="translate(-29.21 -23.44)"/><path class="cls-3" d="M357.68,63.2H358v-.71H340.69v.7h.79c2.26,0,3.38,2,2,3.73L324.2,90.17l19.26,23.24c1.4,1.76.28,3.73-2,3.73h-.79v.7H358v-.71h-.36a12.1,12.1,0,0,1-8.85-3.7l-20-23.26,20-23.26a12.1,12.1,0,0,1,8.85-3.7" transform="translate(-29.21 -23.44)"/><path class="cls-6" d="M110,53.11a8.2,8.2,0,1,1-8.2-8.2,8.2,8.2,0,0,1,8.2,8.2" transform="translate(-29.21 -23.44)"/><polygon class="cls-6" points="74.29 40.66 74.29 70.64 127.09 128.84 74.29 40.66"/><polygon class="cls-6" points="70.96 40.66 18.16 128.84 70.96 70.64 70.96 40.66"/><polygon class="cls-2" points="106.43 21.91 72.72 100.05 38.83 21.91 23.68 21.91 72.63 129.28 121.58 21.91 106.43 21.91"/><rect class="cls-6" x="174.78" y="105.86" width="264.47" height="28"/></g><path class="cls-3" d="M230.34,144.42c0-3.35,0-6.75.11-8.64h-.1c-.78,2.92-3.72,10.65-5.81,16.32h-2.16c-1.58-4.61-4.62-13.28-5.44-16.35h-.08c.14,2.08.2,6.08.2,9.17v7.18h-2.27v-18h3.6c2.07,5.59,4.59,12.8,5.22,15.1h0c.43-1.73,3.41-9.65,5.55-15.1h3.5v18h-2.36ZM257.26,143c0,5-2.81,9.37-8.54,9.37-5.36,0-8.35-4.1-8.35-9.27s3.05-9.27,8.56-9.27C254.06,133.82,257.26,137.63,257.26,143Zm-14.36,0c0,3.89,2,7.31,5.92,7.31,4.22,0,5.91-3.45,5.91-7.3s-1.91-7.16-5.9-7.16S242.91,139.17,242.91,143Zm22,9.09v-18h3.19c2.61,4.21,8.29,13.17,9.31,15.13h0c-.18-2.31-.16-5.15-.16-8.1v-7h2.28v18h-3c-2.41-3.91-8.33-13.55-9.47-15.57h0c.13,2.05.13,5.11.13,8.36v7.21Zm34.93-8.42h-9V150h9.94l-.31,2h-12v-18h11.85v2h-9.48v5.5h9Zm12.85,8.42v-6.61a.92.92,0,0,0-.12-.48l-6.41-10.93h2.76c1.65,2.93,4.29,7.57,5.12,9.16.78-1.56,3.5-6.24,5.22-9.16h2.58l-6.61,11a.8.8,0,0,0-.11.46v6.59Zm25.83-18H341v16h9.49l-.34,2H338.55Zm20.83,0v18H357v-18Zm24.39,10.34c0-3.35,0-6.75.11-8.64h-.1c-.78,2.92-3.72,10.65-5.81,16.32h-2.16c-1.58-4.61-4.62-13.28-5.44-16.35h-.08c.14,2.08.2,6.08.2,9.17v7.18h-2.27v-18h3.6c2.07,5.59,4.59,12.8,5.22,15.1h0c.43-1.73,3.41-9.65,5.55-15.1h3.5v18h-2.36Zm13.62-10.34v18H395v-18Zm12.57,2h-5.88v-2h14.19v2h-5.89v16H410Zm26.23,7.55h-9V150h9.94l-.31,2h-12v-18h11.85v2h-9.48v5.5h9Zm14.58-9.59c5.11,0,8.57,3.45,8.57,8.83s-3.37,9.19-8.66,9.19h-6.42v-18Zm-4.09,16h3.82c4.28,0,6.32-3,6.32-7.11,0-3.56-1.86-6.85-6.31-6.85h-3.83Z" transform="translate(-29.21 -23.44)"/></svg>